{
    "asset" : {
        "generator" : "Khronos glTF Blender I/O v3.4.50",
        "version" : "2.0"
    },
    "extensionsUsed" : [
        "KHR_materials_transmission",
        "KHR_materials_ior"
    ],
    "scene" : 0,
    "scenes" : [
        {
            "name" : "Scene",
            "nodes" : [
                6,
                7,
                8,
                9,
                10,
                11,
                12
            ]
        }
    ],
    "nodes" : [
        {
            "name" : "Bone.001",
            "rotation" : [
                2.60770320892334e-08,
                2.9976021664879227e-15,
                9.173000900530859e-15,
                1
            ],
            "translation" : [
                -4.464510539037292e-09,
                3.0123188495635986,
                1.385215000482276e-07
            ]
        },
        {
            "children" : [
                0
            ],
            "name" : "Bone.002",
            "rotation" : [
                0.07926547527313232,
                -8.018838041766885e-15,
                1.8898361986430245e-08,
                0.9968536496162415
            ],
            "translation" : [
                8.029132914089132e-10,
                3.127379894256592,
                3.769400791497901e-07
            ]
        },
        {
            "children" : [
                1
            ],
            "name" : "Bone.003",
            "rotation" : [
                0.13484737277030945,
                1.0756386693887635e-14,
                3.215012256418959e-08,
                0.9908663630485535
            ],
            "translation" : [
                -9.081873031391297e-10,
                3.562777042388916,
                -2.1910636860411614e-07
            ]
        },
        {
            "children" : [
                2
            ],
            "name" : "Bone",
            "rotation" : [
                -0.8800948262214661,
                5.660032798004977e-08,
                -1.0491547897117925e-07,
                0.47479796409606934
            ],
            "translation" : [
                -2,
                -2.8371167182922363,
                -6.544928073883057
            ]
        },
        {
            "name" : "neutral_bone",
            "rotation" : [
                -0.7071068286895752,
                0,
                0,
                0.7071068286895752
            ]
        },
        {
            "mesh" : 0,
            "name" : "Otter_Mesh",
            "skin" : 0
        },
        {
            "children" : [
                5,
                3,
                4
            ],
            "name" : "Armature",
            "translation" : [
                2.0810012817382812,
                6.86040735244751,
                0.02756023406982422
            ]
        },
        {
            "mesh" : 1,
            "name" : "Icosphere",
            "translation" : [
                2.0810012817382812,
                6.86040735244751,
                0.02756023406982422
            ]
        },
        {
            "mesh" : 2,
            "name" : "Cylinder",
            "rotation" : [
                -0.1078551858663559,
                0,
                0,
                0.9941666722297668
            ],
            "translation" : [
                2.0810012817382812,
                3.8604073524475098,
                1.0275602340698242
            ]
        },
        {
            "mesh" : 3,
            "name" : "Cylinder.001",
            "rotation" : [
                -0.1078551858663559,
                0,
                0,
                0.9941666722297668
            ],
            "translation" : [
                2.0810012817382812,
                3.8604073524475098,
                1.0275602340698242
            ]
        },
        {
            "mesh" : 4,
            "name" : "Icosphere.001",
            "translation" : [
                2.0810012817382812,
                6.86040735244751,
                0.02756023406982422
            ]
        },
        {
            "mesh" : 5,
            "name" : "Cylinder.002",
            "scale" : [
                1.1142244338989258,
                0.36260220408439636,
                1.1142244338989258
            ],
            "translation" : [
                2.0810012817382812,
                1.160407304763794,
                3.8275601863861084
            ]
        },
        {
            "mesh" : 6,
            "name" : "Cylinder.003",
            "scale" : [
                1.3164223432540894,
                0.47916868329048157,
                1.3164223432540894
            ],
            "translation" : [
                2.0810012817382812,
                2.8604073524475098,
                4.027560234069824
            ]
        }
    ],
    "materials" : [
        {
            "doubleSided" : true,
            "name" : "skin",
            "pbrMetallicRoughness" : {
                "baseColorFactor" : [
                    0.3303714394569397,
                    0.17534688115119934,
                    0.12777380645275116,
                    1
                ],
                "metallicFactor" : 0,
                "roughnessFactor" : 0.5
            }
        },
        {
            "doubleSided" : true,
            "emissiveFactor" : [
                0.012789946980774403,
                0.012789946980774403,
                0.012789946980774403
            ],
            "extensions" : {
                "KHR_materials_transmission" : {
                    "transmissionFactor" : 1
                },
                "KHR_materials_ior" : {
                    "ior" : 1.4500000476837158
                }
            },
            "name" : "Material.001",
            "pbrMetallicRoughness" : {
                "baseColorFactor" : [
                    0.800000011920929,
                    0.800000011920929,
                    0.800000011920929,
                    1
                ],
                "metallicFactor" : 0,
                "roughnessFactor" : 0.23856207728385925
            }
        },
        {
            "doubleSided" : true,
            "name" : "Material.002",
            "pbrMetallicRoughness" : {
                "baseColorFactor" : [
                    0.8000000715255737,
                    0,
                    0.0007088365964591503,
                    1
                ],
                "metallicFactor" : 0,
                "roughnessFactor" : 0.5
            }
        },
        {
            "doubleSided" : true,
            "name" : "Material.003",
            "pbrMetallicRoughness" : {
                "baseColorFactor" : [
                    0.5121933221817017,
                    0.5121933221817017,
                    0.5121933221817017,
                    1
                ],
                "metallicFactor" : 0,
                "roughnessFactor" : 0.22614377737045288
            }
        },
        {
            "doubleSided" : true,
            "name" : "Material.004",
            "pbrMetallicRoughness" : {
                "baseColorFactor" : [
                    0.5224857330322266,
                    0.5224857330322266,
                    0.5224857330322266,
                    1
                ],
                "metallicFactor" : 0,
                "roughnessFactor" : 0.5
            }
        }
    ],
    "meshes" : [
        {
            "name" : "Otter_Mesh",
            "primitives" : [
                {
                    "attributes" : {
                        "POSITION" : 0,
                        "TEXCOORD_0" : 1,
                        "NORMAL" : 2,
                        "JOINTS_0" : 3,
                        "WEIGHTS_0" : 4
                    },
                    "indices" : 5,
                    "material" : 0
                }
            ]
        },
        {
            "name" : "Icosphere",
            "primitives" : [
                {
                    "attributes" : {
                        "POSITION" : 7,
                        "TEXCOORD_0" : 8,
                        "NORMAL" : 9
                    },
                    "indices" : 10,
                    "material" : 1
                }
            ]
        },
        {
            "name" : "Cylinder",
            "primitives" : [
                {
                    "attributes" : {
                        "POSITION" : 11,
                        "TEXCOORD_0" : 12,
                        "NORMAL" : 13
                    },
                    "indices" : 14,
                    "material" : 2
                }
            ]
        },
        {
            "name" : "Cylinder.001",
            "primitives" : [
                {
                    "attributes" : {
                        "POSITION" : 15,
                        "TEXCOORD_0" : 16,
                        "NORMAL" : 17
                    },
                    "indices" : 18,
                    "material" : 3
                }
            ]
        },
        {
            "name" : "Icosphere.001",
            "primitives" : [
                {
                    "attributes" : {
                        "POSITION" : 19,
                        "TEXCOORD_0" : 20,
                        "NORMAL" : 21
                    },
                    "indices" : 22,
                    "material" : 4
                }
            ]
        },
        {
            "name" : "Cylinder.002",
            "primitives" : [
                {
                    "attributes" : {
                        "POSITION" : 23,
                        "TEXCOORD_0" : 24,
                        "NORMAL" : 25
                    },
                    "indices" : 26,
                    "material" : 2
                }
            ]
        },
        {
            "name" : "Cylinder.003",
            "primitives" : [
                {
                    "attributes" : {
                        "POSITION" : 27,
                        "TEXCOORD_0" : 28,
                        "NORMAL" : 29
                    },
                    "indices" : 30,
                    "material" : 3
                }
            ]
        }
    ],
    "skins" : [
        {
            "inverseBindMatrices" : 6,
            "joints" : [
                3,
                2,
                1,
                0,
                4
            ],
            "name" : "Armature"
        }
    ],
    "accessors" : [
        {
            "bufferView" : 0,
            "componentType" : 5126,
            "count" : 6888,
            "max" : [
                3.503582000732422,
                11.467455863952637,
                12.11812973022461
            ],
            "min" : [
                -3.503582000732422,
                -1.3538753986358643,
                -19.755014419555664
            ],
            "type" : "VEC3"
        },
        {
            "bufferView" : 1,
            "componentType" : 5126,
            "count" : 6888,
            "type" : "VEC2"
        },
        {
            "bufferView" : 2,
            "componentType" : 5126,
            "count" : 6888,
            "type" : "VEC3"
        },
        {
            "bufferView" : 3,
            "componentType" : 5121,
            "count" : 6888,
            "type" : "VEC4"
        },
        {
            "bufferView" : 4,
            "componentType" : 5126,
            "count" : 6888,
            "type" : "VEC4"
        },
        {
            "bufferView" : 5,
            "componentType" : 5123,
            "count" : 8664,
            "type" : "SCALAR"
        },
        {
            "bufferView" : 6,
            "componentType" : 5126,
            "count" : 5,
            "type" : "MAT4"
        },
        {
            "bufferView" : 7,
            "componentType" : 5126,
            "count" : 63,
            "max" : [
                2.398547887802124,
                8.252455711364746,
                14.502458572387695
            ],
            "min" : [
                -6.3985443115234375,
                -0.7524585723876953,
                5.4975433349609375
            ],
            "type" : "VEC3"
        },
        {
            "bufferView" : 8,
            "componentType" : 5126,
            "count" : 63,
            "type" : "VEC2"
        },
        {
            "bufferView" : 9,
            "componentType" : 5126,
            "count" : 63,
            "type" : "VEC3"
        },
        {
            "bufferView" : 10,
            "componentType" : 5123,
            "count" : 240,
            "type" : "SCALAR"
        },
        {
            "bufferView" : 11,
            "componentType" : 5126,
            "count" : 326,
            "max" : [
                1.0747520923614502,
                7.699028968811035,
                2.968202829360962
            ],
            "min" : [
                -5.074751853942871,
                4.310154914855957,
                -7.6606903076171875
            ],
            "type" : "VEC3"
        },
        {
            "bufferView" : 12,
            "componentType" : 5126,
            "count" : 326,
            "type" : "VEC2"
        },
        {
            "bufferView" : 13,
            "componentType" : 5126,
            "count" : 326,
            "type" : "VEC3"
        },
        {
            "bufferView" : 14,
            "componentType" : 5123,
            "count" : 1128,
            "type" : "SCALAR"
        },
        {
            "bufferView" : 15,
            "componentType" : 5126,
            "count" : 782,
            "max" : [
                1.4923484325408936,
                7.997711181640625,
                1.4258586168289185
            ],
            "min" : [
                -5.492348670959473,
                4.002294063568115,
                -9.188858032226562
            ],
            "type" : "VEC3"
        },
        {
            "bufferView" : 16,
            "componentType" : 5126,
            "count" : 782,
            "type" : "VEC2"
        },
        {
            "bufferView" : 17,
            "componentType" : 5126,
            "count" : 782,
            "type" : "VEC3"
        },
        {
            "bufferView" : 18,
            "componentType" : 5123,
            "count" : 2436,
            "type" : "SCALAR"
        },
        {
            "bufferView" : 19,
            "componentType" : 5126,
            "count" : 126,
            "max" : [
                -0.8135342001914978,
                3.7012085914611816,
                10.40120792388916
            ],
            "min" : [
                -3.3864665031433105,
                3.098792552947998,
                9.798792839050293
            ],
            "type" : "VEC3"
        },
        {
            "bufferView" : 20,
            "componentType" : 5126,
            "count" : 126,
            "type" : "VEC2"
        },
        {
            "bufferView" : 21,
            "componentType" : 5126,
            "count" : 126,
            "type" : "VEC3"
        },
        {
            "bufferView" : 22,
            "componentType" : 5123,
            "count" : 480,
            "type" : "SCALAR"
        },
        {
            "bufferView" : 23,
            "componentType" : 5126,
            "count" : 916,
            "max" : [
                1.5542120933532715,
                0.13209384679794312,
                1.6758463382720947
            ],
            "min" : [
                -5.254472732543945,
                -7.604428768157959,
                -8.502391815185547
            ],
            "type" : "VEC3"
        },
        {
            "bufferView" : 24,
            "componentType" : 5126,
            "count" : 916,
            "type" : "VEC2"
        },
        {
            "bufferView" : 25,
            "componentType" : 5126,
            "count" : 916,
            "type" : "VEC3"
        },
        {
            "bufferView" : 26,
            "componentType" : 5123,
            "count" : 3792,
            "type" : "SCALAR"
        },
        {
            "bufferView" : 27,
            "componentType" : 5126,
            "count" : 520,
            "max" : [
                1.2455309629440308,
                -2.1787195205688477,
                0.8506420850753784
            ],
            "min" : [
                -4.375202178955078,
                -5.2115349769592285,
                -7.467402935028076
            ],
            "type" : "VEC3"
        },
        {
            "bufferView" : 28,
            "componentType" : 5126,
            "count" : 520,
            "type" : "VEC2"
        },
        {
            "bufferView" : 29,
            "componentType" : 5126,
            "count" : 520,
            "type" : "VEC3"
        },
        {
            "bufferView" : 30,
            "componentType" : 5123,
            "count" : 1488,
            "type" : "SCALAR"
        }
    ],
    "bufferViews" : [
        {
            "buffer" : 0,
            "byteLength" : 82656,
            "byteOffset" : 0,
            "target" : 34962
        },
        {
            "buffer" : 0,
            "byteLength" : 55104,
            "byteOffset" : 82656,
            "target" : 34962
        },
        {
            "buffer" : 0,
            "byteLength" : 82656,
            "byteOffset" : 137760,
            "target" : 34962
        },
        {
            "buffer" : 0,
            "byteLength" : 27552,
            "byteOffset" : 220416,
            "target" : 34962
        },
        {
            "buffer" : 0,
            "byteLength" : 110208,
            "byteOffset" : 247968,
            "target" : 34962
        },
        {
            "buffer" : 0,
            "byteLength" : 17328,
            "byteOffset" : 358176,
            "target" : 34963
        },
        {
            "buffer" : 0,
            "byteLength" : 320,
            "byteOffset" : 375504
        },
        {
            "buffer" : 0,
            "byteLength" : 756,
            "byteOffset" : 375824,
            "target" : 34962
        },
        {
            "buffer" : 0,
            "byteLength" : 504,
            "byteOffset" : 376580,
            "target" : 34962
        },
        {
            "buffer" : 0,
            "byteLength" : 756,
            "byteOffset" : 377084,
            "target" : 34962
        },
        {
            "buffer" : 0,
            "byteLength" : 480,
            "byteOffset" : 377840,
            "target" : 34963
        },
        {
            "buffer" : 0,
            "byteLength" : 3912,
            "byteOffset" : 378320,
            "target" : 34962
        },
        {
            "buffer" : 0,
            "byteLength" : 2608,
            "byteOffset" : 382232,
            "target" : 34962
        },
        {
            "buffer" : 0,
            "byteLength" : 3912,
            "byteOffset" : 384840,
            "target" : 34962
        },
        {
            "buffer" : 0,
            "byteLength" : 2256,
            "byteOffset" : 388752,
            "target" : 34963
        },
        {
            "buffer" : 0,
            "byteLength" : 9384,
            "byteOffset" : 391008,
            "target" : 34962
        },
        {
            "buffer" : 0,
            "byteLength" : 6256,
            "byteOffset" : 400392,
            "target" : 34962
        },
        {
            "buffer" : 0,
            "byteLength" : 9384,
            "byteOffset" : 406648,
            "target" : 34962
        },
        {
            "buffer" : 0,
            "byteLength" : 4872,
            "byteOffset" : 416032,
            "target" : 34963
        },
        {
            "buffer" : 0,
            "byteLength" : 1512,
            "byteOffset" : 420904,
            "target" : 34962
        },
        {
            "buffer" : 0,
            "byteLength" : 1008,
            "byteOffset" : 422416,
            "target" : 34962
        },
        {
            "buffer" : 0,
            "byteLength" : 1512,
            "byteOffset" : 423424,
            "target" : 34962
        },
        {
            "buffer" : 0,
            "byteLength" : 960,
            "byteOffset" : 424936,
            "target" : 34963
        },
        {
            "buffer" : 0,
            "byteLength" : 10992,
            "byteOffset" : 425896,
            "target" : 34962
        },
        {
            "buffer" : 0,
            "byteLength" : 7328,
            "byteOffset" : 436888,
            "target" : 34962
        },
        {
            "buffer" : 0,
            "byteLength" : 10992,
            "byteOffset" : 444216,
            "target" : 34962
        },
        {
            "buffer" : 0,
            "byteLength" : 7584,
            "byteOffset" : 455208,
            "target" : 34963
        },
        {
            "buffer" : 0,
            "byteLength" : 6240,
            "byteOffset" : 462792,
            "target" : 34962
        },
        {
            "buffer" : 0,
            "byteLength" : 4160,
            "byteOffset" : 469032,
            "target" : 34962
        },
        {
            "buffer" : 0,
            "byteLength" : 6240,
            "byteOffset" : 473192,
            "target" : 34962
        },
        {
            "buffer" : 0,
            "byteLength" : 2976,
            "byteOffset" : 479432,
            "target" : 34963
        }
    ],
    "buffers" : [
        {
            "byteLength" : 482408,
            "uri" : "data:application/octet-stream;base64,"
        }
    ]
}
